<svg xmlns="http://www.w3.org/2000/svg" width="60" height="60" viewBox="0 0 60 60"><g transform="translate(-1761 82)"><rect width="60" height="60" rx="2" transform="translate(1761 -82)" fill="none"/><path d="M18.178,8.615a4.76,4.76,0,1,1-4.76-4.76,4.76,4.76,0,0,1,4.76,4.76Zm.116,5.851a7.616,7.616,0,1,0-9.754,0,11.431,11.431,0,0,0-6.532,9.79,1.428,1.428,0,1,0,2.852.133,8.568,8.568,0,0,1,17.116,0,1.428,1.428,0,1,0,2.852-.133A11.433,11.433,0,0,0,18.294,14.466Z" transform="translate(1777.582 -65.376)" fill-rule="evenodd"/><g transform="translate(1761 -82)" fill="none" stroke="#000" stroke-width="3"><circle cx="30" cy="30" r="30" stroke="none"/><circle cx="30" cy="30" r="28.5" fill="none"/></g></g></svg>