<svg xmlns="http://www.w3.org/2000/svg" width="294" height="96" viewBox="0 0 294 96"><g transform="translate(-380 -590)"><text transform="translate(380 661)" fill="#944deb" font-size="70" font-family="Nunito-Regular, Nunito"><tspan x="0" y="0" xml:space="preserve">Plan    tM</tspan></text><path d="M31.785,1A30.785,30.785,0,1,0,62.57,31.785,30.786,30.786,0,0,0,31.785,1ZM5.234,30.386h13.28A43.744,43.744,0,0,1,27.5,5.542,26.592,26.592,0,0,0,5.234,30.386Zm17.559,4.2H40.777a38.9,38.9,0,0,1-5.211,16.655A38.52,38.52,0,0,1,31.917,56.5l-.132.165-.132-.16a39.585,39.585,0,0,1-8.86-21.922Z" transform="translate(511.088 616.628) rotate(-22)" fill="#8f4ae9" stroke="#8f4ae9" stroke-width="2" fill-rule="evenodd"/></g></svg>